HIERARCHY
ROOT Hips
{
	OFFSET 0.00000 0.00000 0.00000
	CHANNELS 6 Xposition Yposition Zposition Zrotation Yrotation Xrotation 
	JOINT LHipJoint
	{
		OFFSET 0 0 0
		CHANNELS 3 Zrotation Yrotation Xrotation
		JOINT LeftUpLeg
		{
			OFFSET 1.64577 -1.42384 0.94276
			CHANNELS 3 Zrotation Yrotation Xrotation
			JOINT LeftLeg
			{
				OFFSET 2.11538 -5.81197 0.00000
				CHANNELS 3 Zrotation Yrotation Xrotation
				JOINT LeftFoot
				{
					OFFSET 2.36541 -6.49893 0.00000
					CHANNELS 3 Zrotation Yrotation Xrotation
					JOINT LeftToeBase
					{
						OFFSET 0.17759 -0.48793 1.73865
						CHANNELS 3 Zrotation Yrotation Xrotation
						End Site
						{
							OFFSET 0.00000 -0.00000 0.91205
						}
					}
				}
			}
		}
	}
	JOINT RHipJoint
	{
		OFFSET 0 0 0
		CHANNELS 3 Zrotation Yrotation Xrotation
		JOINT RightUpLeg
		{
			OFFSET -1.43750 -1.42384 0.94276
			CHANNELS 3 Zrotation Yrotation Xrotation
			JOINT RightLeg
			{
				OFFSET -2.10480 -5.78291 0.00000
				CHANNELS 3 Zrotation Yrotation Xrotation
				JOINT RightFoot
				{
					OFFSET -2.34880 -6.45329 0.00000
					CHANNELS 3 Zrotation Yrotation Xrotation
					JOINT RightToeBase
					{
						OFFSET -0.22842 -0.62757 1.80469
						CHANNELS 3 Zrotation Yrotation Xrotation
						End Site
						{
							OFFSET -0.00000 -0.00000 0.95886
						}
					}
				}
			}
		}
	}
	JOINT LowerBack
	{
		OFFSET 0 0 0
		CHANNELS 3 Zrotation Yrotation Xrotation
		JOINT Spine
		{
			OFFSET 0.06217 1.93758 -0.49272
			CHANNELS 3 Zrotation Yrotation Xrotation
			JOINT Spine1
			{
				OFFSET -0.03114 2.03621 -0.05830
				CHANNELS 3 Zrotation Yrotation Xrotation
				JOINT Neck
				{
					OFFSET 0 0 0
					CHANNELS 3 Zrotation Yrotation Xrotation
					JOINT Neck1
					{
						OFFSET 0.04421 1.41010 0.26562
						CHANNELS 3 Zrotation Yrotation Xrotation
						JOINT Head
						{
							OFFSET -0.13407 1.43847 0.06181
							CHANNELS 3 Zrotation Yrotation Xrotation
							End Site
							{
								OFFSET -0.04980 1.45844 -0.00689
							}
						}
					}
				}
				JOINT LeftShoulder
				{
					OFFSET 0 0 0
					CHANNELS 3 Zrotation Yrotation Xrotation
					JOINT LeftArm
					{
						OFFSET 2.18382 1.47753 -0.35694
						CHANNELS 3 Zrotation Yrotation Xrotation
						JOINT LeftForeArm
						{
							OFFSET 5.05460 -0.00000 0.00000
							CHANNELS 3 Zrotation Yrotation Xrotation
							JOINT LeftHand
							{
								OFFSET 3.39013 -0.00000 0.00000
								CHANNELS 3 Zrotation Yrotation Xrotation
								JOINT LeftFingerBase
								{
									OFFSET 0 0 0
									CHANNELS 3 Zrotation Yrotation Xrotation
									JOINT LeftHandIndex1
									{
										OFFSET 0.57242 -0.00000 -0.00000
										CHANNELS 3 Zrotation Yrotation Xrotation
										End Site
										{
											OFFSET 0.46150 -0.00000 -0.00000
										}
									}
								}
								JOINT LThumb
								{
									OFFSET 0 0 0
									CHANNELS 3 Zrotation Yrotation Xrotation
									End Site
									{
										OFFSET 0.46855 -0.00000 0.46855
									}
								}
							}
						}
					}
				}
				JOINT RightShoulder
				{
					OFFSET 0 0 0
					CHANNELS 3 Zrotation Yrotation Xrotation
					JOINT RightArm
					{
						OFFSET -2.06033 1.72839 -0.47437
						CHANNELS 3 Zrotation Yrotation Xrotation
						JOINT RightForeArm
						{
							OFFSET -5.07010 -0.00000 0.00000
							CHANNELS 3 Zrotation Yrotation Xrotation
							JOINT RightHand
							{
								OFFSET -3.14957 -0.00000 -0.00000
								CHANNELS 3 Zrotation Yrotation Xrotation
								JOINT RightFingerBase
								{
									OFFSET 0 0 0
									CHANNELS 3 Zrotation Yrotation Xrotation
									JOINT RightHandIndex1
									{
										OFFSET -0.71819 -0.00000 -0.00000
										CHANNELS 3 Zrotation Yrotation Xrotation
										End Site
										{
											OFFSET -0.57902 -0.00000 -0.00000
										}
									}
								}
								JOINT RThumb
								{
									OFFSET 0 0 0
									CHANNELS 3 Zrotation Yrotation Xrotation
									End Site
									{
										OFFSET -0.58786 -0.00000 0.58786
									}
								}
							}
						}
					}
				}
			}
		}
	}
}
MOTION
Frames: 15
Frame Time: .0083333
-22.2660 14.6357 0.5924 -897.3720 80.3186 902.0980 0.0000 0.0000 0.0000 -24.3940 2.9141 -11.6405 4.6030 12.9223 39.0783 4.8481 12.6411 -46.9481 0.0004 0.1344 0.3694 0.0000 0.0000 0.0000 27.1688 13.2594 -11.1515 -4.4245 -12.7048 38.2733 -4.3334 -13.7959 -45.5246 -0.9434 6.1862 -17.3256 -0.4500 -0.9272 4.1414 -0.3088 -1.1650 3.5944 -0.0305 -0.5538 1.3708 5.0371 0.9241 -9.4310 -1.8866 1.0687 19.1974 -1.3444 0.8150 7.4874 0.0000 -0.0000 0.0000 -84.5611 -9.5658 39.5171 16.1109 -25.6707 -3.6939 -0.0000 0.0000 -3.5782 24.0997 14.7318 6.4895 -7.1250 0.0000 -0.0000 -3.2507 46.0230 -0.0822 0.0000 -0.0000 0.0000 89.7857 -3.0684 35.4045 -12.2440 20.1696 -2.1857 0.0000 -0.0000 -7.2187 -29.9795 0.8107 -0.4676 7.1250 -0.0000 -0.0000 -2.6640 -29.0395 -1.0370
-22.2541 14.6297 0.6212 -894.0610 80.4174 905.2410 0.0000 0.0000 0.0000 -23.2961 3.0129 -12.5768 4.9877 13.3699 40.7694 4.1437 13.2426 -44.4329 0.0055 -0.4787 -1.3154 0.0000 0.0000 0.0000 27.9977 13.3369 -10.5842 -4.2874 -12.5333 37.6457 -4.0408 -14.9971 -45.0426 -1.2737 7.1529 -20.1692 0.2367 -0.9962 4.5061 -0.0321 -1.2395 3.5113 -0.1218 -0.5814 1.0734 5.0503 1.0131 -9.4389 -1.9825 1.2050 19.1705 -1.3654 0.8709 7.4855 -0.0000 0.0000 0.0000 -84.8684 -9.4966 41.0815 17.0005 -26.8585 -4.0876 -0.0000 0.0000 -3.6570 22.8114 14.0047 5.8118 -7.1250 0.0000 -0.0000 -4.3208 45.0762 -0.0081 -0.0000 0.0000 0.0000 89.8786 -3.2918 35.1664 -12.5603 20.6395 -2.2960 0.0000 -0.0000 -8.9371 -29.8060 0.6582 -0.3770 7.1250 -0.0000 -0.0000 -2.5338 -29.2171 -0.9755
-22.2312 14.6265 0.6307 -888.8680 80.7487 910.2740 0.0000 0.0000 0.0000 -22.0757 2.7868 -13.1764 5.3987 13.8192 42.5179 3.8384 12.9955 -42.9973 0.0156 -0.8060 -2.2152 0.0000 0.0000 0.0000 28.9931 13.2708 -9.9791 -4.1469 -12.3534 36.9937 -3.5765 -16.4961 -44.0871 -1.8447 8.5349 -24.3509 1.4490 -0.9595 4.5765 0.1879 -1.1501 3.5054 -0.5770 -0.5169 1.0095 5.2456 1.0613 -9.4579 -2.1715 1.2698 19.1220 -1.4539 0.8967 7.4777 -0.0000 0.0000 0.0000 -85.1688 -9.4245 42.1633 17.9314 -28.0692 -4.5169 -0.0000 0.0000 -2.9929 21.3778 13.2711 5.1348 -7.1250 0.0000 -0.0000 -5.5029 44.1236 0.1194 -0.0000 0.0000 0.0000 90.0634 -3.3953 34.8903 -12.8229 21.0272 -2.3894 0.0000 -0.0000 -10.2502 -29.5179 0.1835 -0.1039 7.1250 -0.0000 -0.0000 -2.3226 -29.7650 -0.8638
-22.2067 14.6285 0.6492 -883.9420 81.6106 915.1890 0.0000 0.0000 0.0000 -21.0364 2.9229 -13.9575 5.8131 14.2448 44.2270 3.6598 12.4626 -41.9031 0.0352 -1.2118 -3.3318 0.0000 0.0000 0.0000 29.8678 13.9252 -9.2853 -4.0252 -12.1939 36.4214 -4.3011 -14.1908 -45.6201 -1.0746 6.5895 -18.5049 2.1325 -0.7409 4.5959 0.3919 -0.8364 3.4451 -0.7615 -0.3513 0.9374 5.3794 1.1098 -9.4289 -2.3647 1.3509 19.0853 -1.5321 0.9264 7.4656 0.0000 -0.0000 0.0000 -85.6273 -9.1782 42.5073 18.8756 -29.2638 -4.9699 -0.0000 0.0000 -1.7977 19.8004 12.1401 4.3299 -7.1250 0.0000 -0.0000 -6.7185 42.7593 0.3733 0.0000 -0.0000 0.0000 90.1134 -3.5218 34.9906 -13.0512 21.3621 -2.4719 0.0000 -0.0000 -11.0028 -29.1726 -0.4148 0.2316 7.1250 -0.0000 -0.0000 -2.0648 -30.4513 -0.7340
-22.1842 14.6342 0.6673 -881.4350 82.6015 917.7060 0.0000 0.0000 0.0000 -20.5522 3.0097 -14.6303 6.2071 14.6261 45.8073 3.4009 12.0620 -40.4934 0.0547 -1.5099 -4.1530 0.0000 0.0000 0.0000 30.1472 14.4073 -8.7247 -3.9296 -12.0662 35.9665 -4.7098 -12.7141 -46.4411 -0.6688 5.2299 -14.5654 2.2889 -0.5070 4.6492 0.4459 -0.5183 3.4387 -0.8053 -0.1904 0.9098 5.3915 1.1788 -9.4443 -2.3498 1.4363 19.0411 -1.5212 0.9674 7.4576 0.0000 -0.0000 0.0000 -86.1309 -8.8495 42.5212 19.7925 -30.3915 -5.4260 -0.0000 0.0000 -0.9915 18.8471 10.5099 3.5628 -7.1250 0.0000 -0.0000 -7.2723 40.9632 0.7283 0.0000 -0.0000 0.0000 90.0979 -3.3822 35.1083 -13.1177 21.4595 -2.4962 0.0000 -0.0000 -11.2786 -28.3549 -0.9246 0.4990 7.1250 -0.0000 -0.0000 -1.4232 -31.0286 -0.4861
-22.1619 14.6416 0.6823 -880.0920 83.5863 919.0140 0.0000 0.0000 0.0000 -20.3326 2.8545 -15.1401 6.5808 14.9685 47.2705 3.0908 11.9534 -38.9654 0.1046 -2.0859 -5.7432 0.0000 0.0000 0.0000 30.1039 14.5063 -8.3683 -3.8588 -11.9701 35.6262 -4.4656 -13.0758 -45.6580 -0.8353 5.8302 -16.2925 2.2711 -0.3041 4.7398 0.4018 -0.2452 3.5074 -0.8507 -0.0521 0.9383 5.5025 1.2835 -9.4786 -2.3523 1.5516 18.9219 -1.5295 1.0258 7.4310 -0.0000 0.0000 0.0000 -86.5570 -8.5265 42.4074 20.6913 -31.4662 -5.8880 -0.0000 0.0000 -0.6584 18.4450 9.3755 3.1100 -7.1250 0.0000 -0.0000 -7.4336 39.7472 0.9686 -0.0000 0.0000 0.0000 90.1029 -2.8945 34.8863 -13.0557 21.3687 -2.4735 0.0000 -0.0000 -11.4484 -26.7834 -1.0999 0.5552 7.1250 -0.0000 -0.0000 -0.1701 -31.2118 -0.0573
-22.1375 14.6484 0.6940 -877.6690 84.4526 921.3850 0.0000 0.0000 0.0000 -20.0692 2.3605 -15.5781 6.9362 15.2779 48.6326 2.8822 11.0546 -37.3811 0.2001 -2.8805 -7.9463 0.0000 0.0000 0.0000 30.1049 14.3975 -8.1185 -3.8037 -11.8946 35.3600 -4.3049 -13.0957 -45.0155 -0.9886 6.3285 -17.7405 2.3649 -0.1920 4.8961 0.3725 -0.0872 3.5406 -0.9393 0.0293 0.8905 5.6798 1.4478 -9.3655 -2.4935 1.7735 18.7386 -1.5848 1.1276 7.3633 0.0000 -0.0000 0.0000 -86.9496 -8.0171 42.0044 21.5454 -32.4594 -6.3401 -0.0000 0.0000 -0.5368 18.2443 8.5088 2.7923 -7.1250 0.0000 -0.0000 -7.4704 38.8297 1.1430 0.0000 -0.0000 0.0000 90.0776 -2.3645 34.3371 -12.9870 21.2682 -2.4486 0.0000 -0.0000 -11.7552 -24.4846 -0.7572 0.3448 7.1250 -0.0000 -0.0000 1.6560 -30.8093 0.5743
-22.1120 14.6536 0.7038 -873.1770 85.1315 925.8060 0.0000 0.0000 0.0000 -19.6874 1.5279 -15.9661 7.2667 15.5524 49.8758 2.6210 10.4568 -35.6585 0.3462 -3.7809 -10.4610 0.0000 0.0000 0.0000 30.3278 14.4435 -7.7589 -3.7595 -11.8332 35.1446 -4.2425 -13.0289 -44.7213 -1.0859 6.6229 -18.6029 2.6962 -0.1240 5.0730 0.3344 0.0228 3.5690 -1.1686 0.0908 0.8261 5.8748 1.6100 -9.2066 -2.6268 1.9922 18.5541 -1.6412 1.2307 7.2880 0.0000 0.0000 0.0000 -87.1803 -7.3824 41.6612 22.2936 -33.3072 -6.7464 -0.0000 0.0000 -0.7818 18.1132 7.4022 2.4132 -7.1250 0.0000 -0.0000 -7.4197 37.6693 1.3478 0.0000 0.0000 0.0000 90.0823 -1.9735 34.5343 -12.9295 21.1838 -2.4277 0.0000 -0.0000 -11.4254 -23.5429 -0.6565 0.2860 7.1250 -0.0000 -0.0000 2.4010 -30.6909 0.8399
-22.0884 14.6552 0.7156 -868.3110 85.6858 930.5180 0.0000 0.0000 0.0000 -19.3697 0.3737 -16.1937 7.5633 15.7885 50.9742 2.4438 9.5697 -34.1446 0.4911 -4.4931 -12.4681 0.0000 0.0000 0.0000 30.6344 14.7439 -7.1924 -3.7248 -11.7848 34.9750 -4.2792 -12.9194 -44.8119 -1.1026 6.6720 -18.7472 3.0094 -0.0679 5.3486 0.2457 0.1225 3.6539 -1.4400 0.1489 0.7661 6.1516 1.7671 -9.1344 -2.7353 2.1786 18.3749 -1.7057 1.3252 7.2302 -0.0000 -0.0000 0.0000 -87.1914 -6.8485 41.5607 22.8898 -33.9681 -7.0766 -0.0000 0.0000 -1.3369 18.0553 6.9079 2.2453 -7.1250 0.0000 -0.0000 -7.4002 37.1512 1.4387 -0.0000 -0.0000 0.0000 90.1590 -1.5162 34.7276 -12.9188 21.1681 -2.4239 0.0000 -0.0000 -11.2130 -22.4643 -0.3726 0.1541 7.1250 -0.0000 -0.0000 3.2455 -30.3746 1.1606
-22.0627 14.6555 0.7281 -864.5610 86.3724 934.1060 0.0000 0.0000 0.0000 -19.3531 -0.8790 -16.3371 7.8032 15.9726 51.8509 2.3696 8.5068 -33.0822 0.5616 -4.8001 -13.3392 0.0000 0.0000 0.0000 30.6600 14.9286 -6.6973 -3.7011 -11.7516 34.8589 -4.3230 -12.6632 -44.8511 -1.1146 6.7069 -18.8500 3.0111 -0.0292 5.6680 0.1264 0.1884 3.7540 -1.5674 0.1853 0.6955 6.4131 1.9814 -9.1613 -2.8838 2.4489 18.2785 -1.7726 1.4555 7.2223 0.0000 0.0000 0.0000 -87.1604 -6.4382 41.4024 23.2649 -34.3772 -7.2873 -0.0000 0.0000 -1.9289 18.1142 7.1420 2.3290 -7.1250 0.0000 -0.0000 -7.3826 37.3986 1.3903 0.0000 0.0000 0.0000 90.1550 -1.0364 35.1000 -12.9714 21.2454 -2.4429 0.0000 -0.0000 -11.1561 -21.2577 -0.0880 0.0342 7.1250 -0.0000 -0.0000 4.1857 -30.0609 1.5296
-22.0323 14.6644 0.7376 -857.3740 87.1942 941.2780 0.0000 0.0000 0.0000 -19.4207 -2.0337 -16.6543 7.9869 16.1096 52.5153 2.3141 7.7490 -32.3173 0.5865 -4.9035 -13.6334 0.0000 0.0000 0.0000 30.5004 14.9728 -6.4339 -3.6851 -11.7291 34.7803 -4.3318 -12.1031 -44.5839 -1.1512 6.8126 -19.1613 2.9442 0.0509 5.8463 0.0437 0.2989 3.8026 -1.6211 0.2409 0.6520 6.5307 2.1865 -9.0626 -3.0488 2.7416 18.1205 -1.8198 1.5858 7.1719 0.0000 0.0000 0.0000 -87.1860 -6.0852 41.1793 23.3902 -34.5127 -7.3582 -0.0000 0.0000 -2.2320 18.1559 7.4270 2.4273 -7.1250 0.0000 -0.0000 -7.3871 37.6978 1.3366 0.0000 0.0000 0.0000 90.0382 -0.5657 35.4792 -13.0096 21.3012 -2.4568 0.0000 -0.0000 -11.2330 -20.2565 0.3633 -0.1341 7.1250 -0.0000 -0.0000 4.9503 -29.5755 1.8683
-21.9835 14.6799 0.7416 -844.5500 88.0390 954.2670 0.0000 0.0000 0.0000 -19.5894 -3.1479 -17.1014 8.1239 16.2096 53.0077 2.2398 7.4735 -31.7190 0.6548 -5.1760 -14.4111 0.0000 0.0000 0.0000 30.2565 15.3412 -6.1342 -3.6592 -11.6925 34.6526 -4.3856 -11.4244 -44.4490 -1.1174 6.7152 -18.8744 2.8353 0.1945 5.6276 -0.0735 0.4753 3.8405 -1.6875 0.3305 0.8214 6.5315 2.3772 -8.9306 -3.0927 3.0156 17.9922 -1.8103 1.7116 7.1216 -0.0000 0.0000 0.0000 -87.1671 -5.7990 41.0194 23.2615 -34.3735 -7.2854 -0.0000 0.0000 -2.0327 18.1969 7.6823 2.5162 -7.1250 0.0000 -0.0000 -7.3887 37.9663 1.2879 -0.0000 0.0000 0.0000 89.9421 -0.1979 35.6873 -13.1049 21.4408 -2.4915 0.0000 -0.0000 -11.4453 -19.4817 0.8283 -0.2930 7.1250 -0.0000 -0.0000 5.5316 -29.0819 2.1546
-21.9385 14.6862 0.7449 -821.4960 88.6317 977.4320 0.0000 0.0000 0.0000 -19.7692 -4.3536 -17.5192 8.2282 16.2846 53.3806 2.1975 7.2897 -31.3598 0.6578 -5.1877 -14.4446 0.0000 0.0000 0.0000 30.0404 15.6379 -5.8420 -3.6194 -11.6360 34.4561 -4.3319 -11.4406 -44.2331 -1.2357 7.0492 -19.8613 2.7398 0.3417 5.6107 -0.2122 0.6652 3.8437 -1.7852 0.4251 0.8441 6.6593 2.5042 -8.9227 -3.1466 3.1807 18.0219 -1.8341 1.7948 7.1417 -0.0000 -0.0000 0.0000 -87.0194 -5.5054 40.8892 22.9861 -34.0736 -7.1305 -0.0000 0.0000 -1.3221 17.8235 8.2376 2.6375 -7.1250 0.0000 -0.0000 -7.7884 38.5173 1.2525 -0.0000 -0.0000 0.0000 89.9193 0.0212 35.7774 -13.3101 21.7399 -2.5670 0.0000 -0.0000 -11.8501 -18.9296 1.1546 -0.3960 7.1250 -0.0000 -0.0000 5.9433 -28.7385 2.3652
-21.8918 14.6875 0.7468 -792.4980 88.4168 1006.5200 0.0000 0.0000 0.0000 -19.4548 -5.5428 -17.9747 8.3044 16.3387 53.6520 2.1831 7.2285 -31.2379 0.6277 -5.0698 -14.1076 0.0000 0.0000 0.0000 30.2624 15.5679 -5.6240 -3.5711 -11.5667 34.2160 -4.2040 -11.8185 -43.8958 -1.5536 7.8668 -22.3101 3.0963 0.4531 5.6141 -0.2244 0.8285 3.8467 -2.0054 0.5136 0.8603 6.7868 2.5972 -8.9520 -3.1969 3.2968 18.0815 -1.8607 1.8549 7.1757 0.0000 0.0000 0.0000 -86.8300 -5.1974 40.7407 22.6122 -33.6620 -6.9222 -0.0000 0.0000 -0.2105 17.3724 9.1072 2.8349 -7.1250 0.0000 -0.0000 -8.3139 39.3838 1.1600 0.0000 0.0000 0.0000 89.8564 0.1591 36.0469 -13.5921 22.1486 -2.6724 0.0000 -0.0000 -12.5384 -18.7281 1.3618 -0.4616 7.1250 -0.0000 -0.0000 6.0882 -28.5213 2.4550
-21.8379 14.6916 0.7469 -773.0550 88.0138 1026.0400 0.0000 0.0000 0.0000 -19.2788 -6.7107 -18.3809 8.3350 16.3602 53.7607 2.1624 7.5233 -31.2823 0.6483 -5.1506 -14.3385 0.0000 0.0000 0.0000 30.3371 15.3706 -5.3956 -3.5206 -11.4936 33.9631 -4.1281 -11.8389 -43.5855 -1.8302 8.5030 -24.2527 3.3510 0.5187 5.5780 -0.2376 0.9251 3.8750 -2.1654 0.5683 0.9205 6.8655 2.7322 -8.8972 -3.3196 3.4920 18.0041 -1.8963 1.9415 7.1548 -0.0000 0.0000 0.0000 -86.7550 -4.9380 40.2921 22.0927 -33.0817 -6.6364 -0.0000 -0.0000 0.9112 17.2923 10.0721 3.1164 -7.1250 0.0000 -0.0000 -8.5509 40.3731 0.9837 -0.0000 0.0000 0.0000 89.7246 0.3158 36.5586 -13.8459 22.5140 -2.7688 0.0000 -0.0000 -13.2839 -18.8289 1.6327 -0.5567 7.1250 -0.0000 -0.0000 5.9958 -28.2363 2.4580
